<svg width="25" height="25" viewBox="0 0 25 25" fill="none" xmlns="http://www.w3.org/2000/svg">
<path d="M4.6875 21.875C4.27083 21.875 3.90625 21.7188 3.59375 21.4062C3.28125 21.0938 3.125 20.7292 3.125 20.3125V4.6875C3.125 4.27083 3.28125 3.90625 3.59375 3.59375C3.90625 3.28125 4.27083 3.125 4.6875 3.125H14.1927V4.6875H4.6875V20.3125H20.3125V10.8073H21.875V20.3125C21.875 20.7292 21.7188 21.0938 21.4062 21.4062C21.0938 21.7188 20.7292 21.875 20.3125 21.875H4.6875ZM6.25 17.6562H18.75L15 12.6562L11.6927 17.0052L9.24479 13.776L6.25 17.6562ZM18.0469 9.24479V6.97917H15.7552V5.41667H18.0469V3.125H19.6094V5.41667H21.875V6.97917H19.6094V9.24479H18.0469Z" fill="#1E1E1E"/>
</svg>
