<svg width="48" height="48" viewBox="0 0 48 48" fill="none" xmlns="http://www.w3.org/2000/svg">
<path d="M24 44C21.1667 44 18.5333 43.4917 16.1 42.475C13.6667 41.4583 11.55 40.05 9.75 38.25C7.95 36.45 6.54167 34.3333 5.525 31.9C4.50833 29.4667 4 26.8333 4 24C4 21.2 4.50833 18.5833 5.525 16.15C6.54167 13.7167 7.95 11.6 9.75 9.8C11.55 8 13.6667 6.58333 16.1 5.55C18.5333 4.51667 21.1667 4 24 4C26.5 4 28.8333 4.4 31 5.2C33.1667 6 35.1167 7.1 36.85 8.5L34.7 10.65C33.2333 9.48333 31.6 8.58333 29.8 7.95C28 7.31667 26.0667 7 24 7C19.1667 7 15.125 8.625 11.875 11.875C8.625 15.125 7 19.1667 7 24C7 28.8333 8.625 32.875 11.875 36.125C15.125 39.375 19.1667 41 24 41C25.2333 41 26.425 40.8833 27.575 40.65C28.725 40.4167 29.8333 40.0667 30.9 39.6L33.15 41.9C31.7833 42.5667 30.3333 43.0833 28.8 43.45C27.2667 43.8167 25.6667 44 24 44ZM38.5 39.5V33.5H32.5V30.5H38.5V24.5H41.5V30.5H47.5V33.5H41.5V39.5H38.5ZM21.05 33.1L12.8 24.8L15.05 22.55L21.05 28.55L41.75 7.85L44.05 10.1L21.05 33.1Z" fill="white"/>
</svg>
