<svg width="25" height="25" viewBox="0 0 25 25" fill="none" xmlns="http://www.w3.org/2000/svg">
<path d="M12.5002 22.9166C11.0592 22.9166 9.70502 22.6431 8.43766 22.0963C7.1703 21.5494 6.06787 20.8072 5.13037 19.8697C4.19287 18.9322 3.45068 17.8298 2.90381 16.5624C2.35693 15.2951 2.0835 13.9409 2.0835 12.4999C2.0835 11.0589 2.35693 9.70478 2.90381 8.43742C3.45068 7.17006 4.19287 6.06763 5.13037 5.13013C6.06787 4.19263 7.1703 3.45044 8.43766 2.90356C9.70502 2.35669 11.0592 2.08325 12.5002 2.08325C13.6286 2.08325 14.6963 2.24818 15.7033 2.57804C16.7102 2.9079 17.6391 3.36797 18.4897 3.95825L16.9793 5.49471C16.3196 5.07804 15.6165 4.75252 14.87 4.51815C14.1234 4.28377 13.3335 4.16659 12.5002 4.16659C10.1911 4.16659 8.22499 4.97822 6.60173 6.60148C4.97846 8.22475 4.16683 10.1909 4.16683 12.4999C4.16683 14.8089 4.97846 16.7751 6.60173 18.3984C8.22499 20.0216 10.1911 20.8333 12.5002 20.8333C13.0557 20.8333 13.5939 20.7812 14.1147 20.677C14.6356 20.5728 15.1391 20.4253 15.6252 20.2343L17.1877 21.8228C16.4759 22.1701 15.7293 22.4392 14.9481 22.6301C14.1668 22.8211 13.3509 22.9166 12.5002 22.9166ZM19.7918 20.8333V17.7083H16.6668V15.6249H19.7918V12.4999H21.8752V15.6249H25.0002V17.7083H21.8752V20.8333H19.7918ZM11.0418 17.2916L6.61475 12.8645L8.07308 11.4062L11.0418 14.3749L21.4585 3.93221L22.9168 5.39054L11.0418 17.2916Z" fill="#1E1E1E"/>
</svg>
