<svg width="25" height="25" viewBox="0 0 25 25" fill="none" xmlns="http://www.w3.org/2000/svg">
<path d="M12.5 21.875C9.89583 21.875 7.68229 20.9635 5.85938 19.1406C4.03646 17.3177 3.125 15.1042 3.125 12.5C3.125 9.89583 4.03646 7.68229 5.85938 5.85938C7.68229 4.03646 9.89583 3.125 12.5 3.125C12.6389 3.125 12.7865 3.12934 12.9427 3.13802C13.099 3.1467 13.2986 3.15972 13.5417 3.17708C12.9167 3.73264 12.4306 4.4184 12.0833 5.23438C11.7361 6.05035 11.5625 6.90972 11.5625 7.8125C11.5625 9.375 12.1094 10.7031 13.2031 11.7969C14.2969 12.8906 15.625 13.4375 17.1875 13.4375C18.0903 13.4375 18.9497 13.2769 19.7656 12.9557C20.5816 12.6345 21.2674 12.1875 21.8229 11.6146C21.8403 11.8229 21.8533 11.9922 21.862 12.1224C21.8707 12.2526 21.875 12.3785 21.875 12.5C21.875 15.1042 20.9635 17.3177 19.1406 19.1406C17.3177 20.9635 15.1042 21.875 12.5 21.875ZM12.5 20.3125C14.3924 20.3125 16.0417 19.7266 17.4479 18.5547C18.8542 17.3828 19.7309 16.0069 20.0781 14.4271C19.6441 14.6181 19.1782 14.7613 18.6805 14.8568C18.1829 14.9523 17.6852 15 17.1875 15C15.1964 15 13.5007 14.2998 12.1005 12.8995C10.7002 11.4993 10 9.80365 10 7.8125C10 7.39583 10.0434 6.94878 10.1302 6.47135C10.217 5.99392 10.3733 5.45139 10.599 4.84375C8.89757 5.3125 7.48698 6.26302 6.36719 7.69531C5.2474 9.1276 4.6875 10.7292 4.6875 12.5C4.6875 14.6701 5.44705 16.5148 6.96615 18.0339C8.48524 19.553 10.3299 20.3125 12.5 20.3125Z" fill="#1E1E1E"/>
</svg>
