<svg viewBox="0 0 25 25" fill="none" xmlns="http://www.w3.org/2000/svg">
<path d="M12.4997 22.9166C11.0587 22.9166 9.70454 22.6431 8.43717 22.0963C7.16981 21.5494 6.06738 20.8072 5.12988 19.8697C4.19238 18.9322 3.4502 17.8298 2.90332 16.5624C2.35645 15.2951 2.08301 13.9409 2.08301 12.4999C2.08301 11.0589 2.35645 9.70478 2.90332 8.43742C3.4502 7.17006 4.19238 6.06763 5.12988 5.13013C6.06738 4.19263 7.16981 3.45044 8.43717 2.90356C9.70454 2.35669 11.0587 2.08325 12.4997 2.08325C13.9406 2.08325 15.2948 2.35669 16.5622 2.90356C17.8295 3.45044 18.932 4.19263 19.8695 5.13013C20.807 6.06763 21.5492 7.17006 22.096 8.43742C22.6429 9.70478 22.9163 11.0589 22.9163 12.4999V13.8801C22.9163 14.8523 22.5748 15.6727 21.8919 16.3411C21.2087 17.0095 20.3696 17.3437 19.3747 17.3437C18.7483 17.3437 18.1577 17.1918 17.6028 16.8879C17.0479 16.5841 16.6229 16.1544 16.3278 15.5989C15.8764 16.1892 15.3115 16.6275 14.633 16.914C13.9544 17.2004 13.2433 17.3437 12.4997 17.3437C11.1523 17.3437 10.0038 16.8749 9.05436 15.9374C8.10471 14.9999 7.62988 13.854 7.62988 12.4997C7.62988 11.1451 8.10471 9.99063 9.05436 9.03612C10.0038 8.08143 11.1523 7.60409 12.4997 7.60409C13.8469 7.60409 14.9953 8.08143 15.945 9.03612C16.8946 9.9908 17.3695 11.1454 17.3695 12.4999V13.8801C17.3695 14.4116 17.5648 14.8613 17.9554 15.2293C18.346 15.5972 18.8148 15.7812 19.3617 15.7812C19.9085 15.7812 20.3773 15.5972 20.7679 15.2293C21.1585 14.8613 21.3538 14.4116 21.3538 13.8801V12.4999C21.3538 10.028 20.4961 7.93438 18.7807 6.21893C17.0652 4.50348 14.9715 3.64575 12.4997 3.64575C10.028 3.64575 7.93431 4.50348 6.21869 6.21893C4.50323 7.93438 3.64551 10.028 3.64551 12.4999C3.64551 14.9716 4.50323 17.0653 6.21869 18.7809C7.93431 20.4964 10.028 21.3541 12.4997 21.3541H18.0726V22.9166H12.4997ZM12.5012 15.7812C13.4203 15.7812 14.2011 15.4622 14.8434 14.8241C15.4858 14.1861 15.807 13.4114 15.807 12.4999C15.807 11.5624 15.4853 10.7725 14.8419 10.1301C14.1985 9.48777 13.4172 9.16659 12.4981 9.16659C11.579 9.16659 10.7983 9.48777 10.1559 10.1301C9.51356 10.7725 9.19238 11.5624 9.19238 12.4999C9.19238 13.4114 9.51408 14.1861 10.1575 14.8241C10.8009 15.4622 11.5821 15.7812 12.5012 15.7812Z" fill="#1E1E1E"/>
</svg>
