<svg width="25" height="25" viewBox="0 0 25 25" fill="none" xmlns="http://www.w3.org/2000/svg">
<path d="M14.9743 15.5209C14.575 14.6181 13.7894 13.902 12.6175 13.3725C11.4456 12.843 10.226 12.5782 8.95866 12.5782C7.6913 12.5782 6.47168 12.843 5.2998 13.3725C4.12793 13.902 3.33366 14.6181 2.91699 15.5209H14.9743ZM1.04199 17.0834C1.04199 15.1911 1.84928 13.7067 3.46387 12.6303C5.07845 11.5539 6.91005 11.0157 8.95866 11.0157C11.0073 11.0157 12.8389 11.5539 14.4535 12.6303C16.068 13.7067 16.8753 15.1911 16.8753 17.0834H1.04199ZM1.04199 20.4167V18.8542H16.8753V20.4167H1.04199ZM18.4378 23.9584V22.3959H20.6774L22.1618 7.29175H11.7972L11.6149 5.72925H16.9535V1.04175H18.5159V5.72925H23.9587L22.2139 22.3959C22.1602 22.8449 21.9634 23.2175 21.6235 23.5139C21.2837 23.8102 20.8903 23.9584 20.443 23.9584H18.4378ZM1.82324 23.9584C1.60189 23.9584 1.41638 23.8835 1.26673 23.7337C1.11691 23.584 1.04199 23.3985 1.04199 23.1772V22.3959H16.8753V23.1819C16.8753 23.4044 16.8005 23.5895 16.6508 23.7371C16.501 23.8846 16.3154 23.9584 16.0941 23.9584H1.82324Z" fill="#1E1E1E"/>
</svg>
