<svg width="25" height="25" viewBox="0 0 25 25" fill="none" xmlns="http://www.w3.org/2000/svg">
<path d="M21.5107 9.76563L20.417 8.67188L21.5889 7.5L17.5003 3.41146L16.3285 4.58333L15.2087 3.46354L15.9899 2.65625C16.3892 2.25694 16.884 2.06163 17.4743 2.07031C18.0646 2.07899 18.5594 2.28299 18.9587 2.68229L22.318 6.04167C22.7173 6.44097 22.917 6.93142 22.917 7.51302C22.917 8.09462 22.7173 8.58507 22.318 8.98438L21.5107 9.76563ZM9.01074 22.2917C8.61144 22.691 8.12099 22.8906 7.53939 22.8906C6.95779 22.8906 6.46734 22.691 6.06803 22.2917L2.34408 18.5677C2.04894 18.266 1.90137 17.8954 1.90137 17.456C1.90137 17.0166 2.04894 16.6493 2.34408 16.3542L3.48991 15.2083L4.6097 16.3021L3.43783 17.474L7.52637 21.5625L8.69824 20.3906L9.79199 21.5104L9.01074 22.2917ZM19.3493 14.2708L21.5628 12.0573L12.943 3.4375L10.7295 5.65104L19.3493 14.2708ZM12.0576 21.5625L14.2972 19.3229L5.67741 10.7031L3.43783 12.9427L12.0576 21.5625ZM12.292 15.1042L15.1305 12.2656L12.7347 9.86979L9.89616 12.7083L12.292 15.1042ZM13.1514 22.6563C12.8574 22.9514 12.4931 23.099 12.0584 23.099C11.6238 23.099 11.259 22.9514 10.9639 22.6563L2.34408 14.0365C2.04894 13.7425 1.90137 13.3782 1.90137 12.9435C1.90137 12.5089 2.04894 12.1441 2.34408 11.849L4.55762 9.60938C4.85935 9.31424 5.22993 9.16667 5.66934 9.16667C6.10875 9.16667 6.47602 9.31424 6.77116 9.60938L8.77637 11.6146L11.641 8.75L9.63574 6.74479C9.3406 6.45087 9.19303 6.08655 9.19303 5.65182C9.19303 5.21728 9.3406 4.85243 9.63574 4.55729L11.8493 2.31771C12.151 2.02257 12.5216 1.875 12.961 1.875C13.4004 1.875 13.7677 2.02257 14.0628 2.31771L22.6826 10.9375C22.9778 11.2392 23.1253 11.6098 23.1253 12.0492C23.1253 12.4886 22.9778 12.8559 22.6826 13.151L20.443 15.3646C20.1491 15.6597 19.7848 15.8073 19.3501 15.8073C18.9155 15.8073 18.5507 15.6597 18.2555 15.3646L16.2503 13.3594L13.3857 16.224L15.391 18.2292C15.6861 18.5309 15.8337 18.9015 15.8337 19.3409C15.8337 19.7803 15.6861 20.1476 15.391 20.4427L13.1514 22.6563Z" fill="#1E1E1E"/>
</svg>
