<svg width="25" height="26" viewBox="0 0 25 26" fill="none" xmlns="http://www.w3.org/2000/svg">
<path d="M21.75 14.668V23.6974C21.7498 23.9806 21.6731 24.2585 21.5279 24.5016C21.3828 24.7447 21.1746 24.9441 20.9254 25.0786C20.6996 25.2008 20.4464 25.2632 20.1897 25.2599H15.4966C15.2894 25.2599 15.0907 25.1776 14.9442 25.031C14.7977 24.8845 14.7154 24.6858 14.7154 24.4786V19.7904C14.7154 19.5831 14.6331 19.3844 14.4866 19.2379C14.34 19.0914 14.1413 19.0091 13.9341 19.0091H10.8091C10.6019 19.0091 10.4032 19.0914 10.2567 19.2379C10.1102 19.3844 10.0279 19.5831 10.0279 19.7904V24.4786C10.0279 24.6858 9.94559 24.8845 9.79908 25.031C9.65256 25.1776 9.45385 25.2599 9.24665 25.2599H4.56279C4.34128 25.2604 4.12221 25.2137 3.92025 25.1227C3.71829 25.0317 3.53812 24.8985 3.3918 24.7322C3.13495 24.4352 2.99563 24.0544 3.0001 23.6617V14.6679C3.00027 14.4502 3.04584 14.2349 3.1339 14.0358C3.22196 13.8368 3.35058 13.6582 3.51153 13.5116L11.3233 6.40869C11.6102 6.14585 11.9852 6.00004 12.3744 6C12.7635 5.99996 13.1385 6.14571 13.4255 6.40849L21.2387 13.5117C21.3996 13.6583 21.5282 13.8369 21.6162 14.036C21.7042 14.2351 21.7498 14.4503 21.75 14.668Z" fill="#1E1E1E"/>
</svg>
