<svg width="25" height="25" viewBox="0 0 25 25" fill="none" xmlns="http://www.w3.org/2000/svg">
<g clip-path="url(#clip0_108_5194)">
<path d="M20.9635 23.2032L10.7031 12.9428C9.76562 13.1685 8.90191 13.5331 8.11198 14.0365C7.32205 14.54 6.63194 15.0956 6.04167 15.7032L4.40104 14.0626C5.0434 13.4202 5.70747 12.856 6.39323 12.3699C7.07899 11.8838 7.89931 11.4497 8.85417 11.0678L5.96354 8.17717C5.14757 8.57647 4.375 9.04956 3.64583 9.59644C2.91667 10.1433 2.24826 10.7119 1.64062 11.3022L0 9.66154C0.625 9.01918 1.2934 8.42022 2.00521 7.86467C2.71701 7.30911 3.44618 6.83168 4.19271 6.43237L1.79688 4.03654L2.91667 2.91675L22.0833 22.0834L20.9635 23.2032ZM12.5 21.6928C11.875 21.6928 11.3281 21.4584 10.8594 20.9897C10.3906 20.5209 10.1562 19.974 10.1562 19.349C10.1562 18.724 10.3906 18.1772 10.8594 17.7084C11.3281 17.2397 11.875 17.0053 12.5 17.0053C13.125 17.0053 13.6719 17.2397 14.1406 17.7084C14.6094 18.1772 14.8438 18.724 14.8438 19.349C14.8438 19.974 14.6094 20.5209 14.1406 20.9897C13.6719 21.4584 13.125 21.6928 12.5 21.6928ZM18.9583 15.7032C18.3854 15.1477 17.8646 14.7006 17.3958 14.3621C16.9271 14.0235 16.3281 13.6893 15.599 13.3595L12.6562 10.4167C14.3056 10.4515 15.7595 10.79 17.0182 11.4324C18.2769 12.0747 19.4705 12.9515 20.599 14.0626L18.9583 15.7032ZM23.3594 11.3022C21.8316 9.84383 20.1606 8.68064 18.3464 7.81258C16.5321 6.94453 14.5833 6.5105 12.5 6.5105C11.8576 6.5105 11.2413 6.54956 10.651 6.62769C10.0608 6.70581 9.56597 6.81432 9.16667 6.95321L7.26562 5.05216C8.02951 4.77439 8.85851 4.55737 9.7526 4.40112C10.6467 4.24487 11.5625 4.16675 12.5 4.16675C14.9306 4.16675 17.2179 4.67022 19.362 5.67716C21.5061 6.68411 23.3854 8.01223 25 9.66154L23.3594 11.3022Z" fill="#1E1E1E"/>
</g>
<defs>
<clipPath id="clip0_108_5194">
<rect width="25" height="25" fill="white"/>
</clipPath>
</defs>
</svg>
