<svg width="25" height="25" viewBox="0 0 25 25" fill="none" xmlns="http://www.w3.org/2000/svg">
<path d="M8.56738 18.5417L7.91634 17.5522C9.23579 17.3612 10.2905 16.9445 11.0804 16.3022C11.8703 15.6598 12.2653 14.8872 12.2653 13.9845C12.2653 13.4289 12.07 12.9167 11.6794 12.448C11.2887 11.9792 10.7722 11.6407 10.1299 11.4324C9.71322 12.4393 9.22711 13.3464 8.67155 14.1537C8.11599 14.961 7.49968 15.6598 6.82259 16.2501C6.87468 16.4411 6.9311 16.6407 6.99186 16.849C7.05263 17.0574 7.11773 17.257 7.18718 17.448L6.11947 17.7865C6.08474 17.665 6.04568 17.5348 6.00228 17.3959C5.95888 17.257 5.91981 17.1095 5.88509 16.9532C5.39898 17.231 4.94759 17.435 4.53092 17.5652C4.11426 17.6954 3.72363 17.7605 3.35905 17.7605C2.87294 17.7605 2.46061 17.5782 2.12207 17.2136C1.78353 16.849 1.61426 16.4063 1.61426 15.8855C1.61426 14.9306 1.93978 14.0322 2.59082 13.1902C3.24186 12.3482 4.14898 11.6494 5.31218 11.0938C5.32954 10.7292 5.35558 10.3647 5.3903 10.0001L5.49447 8.90633C4.99099 8.92369 4.46148 8.92803 3.90592 8.91935C3.35037 8.91067 2.77745 8.88029 2.18717 8.82821L2.16113 7.70841C2.59516 7.77786 3.06825 7.8256 3.5804 7.85164C4.09256 7.87769 4.7653 7.89071 5.59863 7.89071C5.63336 7.57821 5.67242 7.27005 5.71582 6.96623C5.75922 6.66241 5.77224 6.35425 5.75488 6.04175L7.00488 6.06779C6.90072 6.36293 6.82259 6.66675 6.77051 6.97925C6.71843 7.29175 6.66634 7.59557 6.61426 7.89071C7.63856 7.83862 8.5804 7.7605 9.43978 7.65633C10.2992 7.55216 11.0934 7.41328 11.8226 7.23966L11.8486 8.33341C10.9632 8.4723 10.0821 8.58515 9.2054 8.67196C8.32867 8.75876 7.43023 8.82821 6.51009 8.88029C6.47537 9.17543 6.44933 9.47925 6.43197 9.79175C6.41461 10.1042 6.38856 10.4081 6.35384 10.7032C6.9094 10.5643 7.43457 10.4602 7.92936 10.3907C8.42415 10.3213 8.91461 10.3039 9.40072 10.3386C9.4528 10.1477 9.4962 9.97404 9.53093 9.81779C9.56565 9.66154 9.59169 9.50529 9.60905 9.34904L10.7809 9.6355C10.7288 9.73966 10.6811 9.86987 10.6377 10.0261C10.5943 10.1824 10.5379 10.356 10.4684 10.547C11.3538 10.79 12.0656 11.2327 12.6038 11.8751C13.142 12.5174 13.4111 13.2292 13.4111 14.0105C13.4111 15.1216 12.9684 16.0938 12.083 16.9272C11.1976 17.7605 10.0257 18.2987 8.56738 18.5417ZM3.59342 16.6147C3.90592 16.6147 4.22711 16.5452 4.55697 16.4063C4.88683 16.2674 5.24273 16.0678 5.62467 15.8074C5.50315 15.1129 5.41634 14.4749 5.36426 13.8933C5.31218 13.3117 5.28613 12.7431 5.28613 12.1876C4.4528 12.7084 3.81912 13.264 3.38509 13.8542C2.95106 14.4445 2.73405 15.0522 2.73405 15.6772C2.73405 15.9376 2.81651 16.1589 2.98145 16.3412C3.14638 16.5235 3.35037 16.6147 3.59342 16.6147ZM6.56218 15.0522C7.11773 14.4966 7.60818 13.9063 8.03353 13.2813C8.45888 12.6563 8.81044 11.9879 9.08822 11.2761C8.61947 11.2761 8.15506 11.3152 7.69499 11.3933C7.23492 11.4714 6.77919 11.5886 6.3278 11.7449C6.29308 12.231 6.29742 12.7388 6.34082 13.2683C6.38422 13.7978 6.45801 14.3924 6.56218 15.0522ZM18.333 16.6667C18.8886 16.6667 19.4354 16.5365 19.9736 16.2761C20.5118 16.0157 21.0066 15.6424 21.458 15.1563V12.0053C20.9545 12.0747 20.5118 12.1485 20.1299 12.2266C19.7479 12.3048 19.3834 12.3959 19.0361 12.5001C18.1681 12.7779 17.517 13.1207 17.083 13.5287C16.649 13.9367 16.432 14.4185 16.432 14.974C16.432 15.4775 16.6056 15.8855 16.9528 16.198C17.3 16.5105 17.7601 16.6667 18.333 16.6667ZM17.9684 17.9949C17.0309 17.9949 16.2801 17.7258 15.7158 17.1876C15.1516 16.6494 14.8695 15.9289 14.8695 15.0261C14.8695 14.1581 15.1646 13.4332 15.7549 12.8516C16.3452 12.27 17.2566 11.8056 18.4893 11.4584C18.8712 11.3542 19.3096 11.2544 19.8044 11.1589C20.2992 11.0634 20.8504 10.9723 21.458 10.8855C21.458 9.91328 21.2974 9.19713 20.9762 8.73706C20.6551 8.27699 20.0778 8.04696 19.2445 8.04696C18.7931 8.04696 18.333 8.12942 17.8643 8.29435C17.3955 8.45928 16.8313 8.7414 16.1716 9.14071L15.5205 8.02091C16.1281 7.60425 16.7792 7.27873 17.4736 7.04435C18.1681 6.80998 18.8625 6.69279 19.557 6.69279C20.7549 6.69279 21.6316 7.06171 22.1872 7.79956C22.7427 8.53741 23.0205 9.58341 23.0205 10.9376V17.7605H21.7184L21.5622 16.4845C21.0413 16.9706 20.4641 17.3438 19.8304 17.6042C19.1967 17.8647 18.5761 17.9949 17.9684 17.9949Z" fill="#1E1E1E"/>
</svg>
