<svg width="25" height="25" viewBox="0 0 25 25" fill="none" xmlns="http://www.w3.org/2000/svg">
<path d="M12.5003 16.1459C13.5073 16.1459 14.3666 15.79 15.0785 15.0782C15.7903 14.3664 16.1462 13.507 16.1462 12.5001C16.1462 11.4931 15.7903 10.6338 15.0785 9.92196C14.3666 9.21015 13.5073 8.85425 12.5003 8.85425C11.4934 8.85425 10.634 9.21015 9.9222 9.92196C9.21039 10.6338 8.85449 11.4931 8.85449 12.5001C8.85449 13.507 9.21039 14.3664 9.9222 15.0782C10.634 15.79 11.4934 16.1459 12.5003 16.1459ZM12.5003 17.7084C11.0594 17.7084 9.83105 17.2006 8.81543 16.185C7.7998 15.1694 7.29199 13.9411 7.29199 12.5001C7.29199 11.0591 7.7998 9.83081 8.81543 8.81519C9.83105 7.79956 11.0594 7.29175 12.5003 7.29175C13.9413 7.29175 15.1696 7.79956 16.1852 8.81519C17.2008 9.83081 17.7087 11.0591 17.7087 12.5001C17.7087 13.9411 17.2008 15.1694 16.1852 16.185C15.1696 17.2006 13.9413 17.7084 12.5003 17.7084ZM5.20866 13.2813H1.04199V11.7188H5.20866V13.2813ZM23.9587 13.2813H19.792V11.7188H23.9587V13.2813ZM11.7191 5.20841V1.04175H13.2816V5.20841H11.7191ZM11.7191 23.9584V19.7917H13.2816V23.9584H11.7191ZM6.82324 7.86466L4.21908 5.33862L5.33887 4.19279L7.83887 6.79696L6.82324 7.86466ZM19.6878 20.7813L17.1357 18.1772L18.2034 17.1095L20.7816 19.6615L19.6878 20.7813ZM17.1097 6.79696L19.6618 4.21883L20.8076 5.31258L18.2295 7.86466L17.1097 6.79696ZM4.21908 19.6615L6.7972 17.1095L7.89095 18.2032L5.33887 20.7813L4.21908 19.6615Z" fill="#1E1E1E"/>
</svg>
