<svg width="25" height="25" viewBox="0 0 25 25" fill="none" xmlns="http://www.w3.org/2000/svg">
<path d="M2.86257 18.75C2.36066 18.75 1.93175 18.5713 1.57585 18.2138C1.21994 17.8563 1.04199 17.4266 1.04199 16.9247C1.04199 16.4228 1.21986 15.9939 1.57559 15.638C1.93149 15.2821 2.35927 15.1042 2.85892 15.1042C2.94972 15.1042 3.03852 15.1085 3.12533 15.1172C3.21213 15.1259 3.32498 15.1476 3.46387 15.1823L8.6722 9.97396C8.63748 9.83507 8.61578 9.72222 8.6071 9.63542C8.59842 9.54861 8.59408 9.45981 8.59408 9.36901C8.59408 8.86936 8.77281 8.44158 9.13027 8.08568C9.48774 7.72995 9.91743 7.55208 10.4193 7.55208C10.9212 7.55208 11.3502 7.73116 11.7061 8.08932C12.062 8.44766 12.2399 8.8783 12.2399 9.38125C12.2399 9.41181 12.2139 9.60938 12.1618 9.97396L15.0264 12.8385C15.1653 12.8038 15.2781 12.7821 15.3649 12.7734C15.4517 12.7648 15.5385 12.7604 15.6253 12.7604C15.7121 12.7604 15.7989 12.7648 15.8857 12.7734C15.9725 12.7821 16.0854 12.8038 16.2243 12.8385L20.3909 8.67188C20.3562 8.53299 20.3345 8.42014 20.3258 8.33333C20.3172 8.24653 20.3128 8.15773 20.3128 8.06693C20.3128 7.56727 20.4916 7.1395 20.849 6.78359C21.2065 6.42786 21.6362 6.25 22.1381 6.25C22.64 6.25 23.0689 6.42873 23.4248 6.7862C23.7807 7.14366 23.9587 7.57335 23.9587 8.07526C23.9587 8.57717 23.7808 9.00608 23.4251 9.36198C23.0692 9.71788 22.6414 9.89583 22.1417 9.89583C22.0509 9.89583 21.9621 9.89149 21.8753 9.88281C21.7885 9.87413 21.6757 9.85243 21.5368 9.81771L17.3701 13.9844C17.4048 14.1233 17.4265 14.2361 17.4352 14.3229C17.4439 14.4097 17.4482 14.4985 17.4482 14.5893C17.4482 15.089 17.2695 15.5168 16.912 15.8727C16.5546 16.2284 16.1249 16.4062 15.623 16.4062C15.1211 16.4062 14.6922 16.2284 14.3363 15.8727C13.9804 15.5168 13.8024 15.089 13.8024 14.5893C13.8024 14.4985 13.8067 14.4097 13.8154 14.3229C13.8241 14.2361 13.8458 14.1233 13.8805 13.9844L11.016 11.1198C10.8771 11.1545 10.7642 11.1762 10.6774 11.1849C10.5906 11.1936 10.5016 11.1979 10.4105 11.1979C10.3801 11.1979 10.1826 11.1719 9.81803 11.1198L4.6097 16.3281C4.64442 16.467 4.66612 16.5799 4.6748 16.6667C4.68349 16.7535 4.68783 16.8423 4.68783 16.9331C4.68783 17.4327 4.50909 17.8605 4.15163 18.2164C3.79416 18.5721 3.36447 18.75 2.86257 18.75Z" fill="#1E1E1E"/>
</svg>
