<svg width="25" height="25" viewBox="0 0 25 25" fill="none" xmlns="http://www.w3.org/2000/svg">
<path d="M6.79688 20.8334C6.34549 20.8334 5.97222 20.6858 5.67708 20.3907C5.38194 20.0956 5.23438 19.7223 5.23438 19.2709C5.23438 18.9584 5.3125 18.6589 5.46875 18.3725C5.625 18.086 5.85069 17.882 6.14583 17.7605L10.625 15.9897V12.3959C9.47917 13.8022 8.31597 14.8612 7.13542 15.573C5.95486 16.2848 4.61806 16.6407 3.125 16.6407V15.0782C4.30556 15.0782 5.38194 14.8048 6.35417 14.2579C7.32639 13.711 8.20312 12.9428 8.98438 11.9532L10.4948 10.2605C10.6684 10.0522 10.8724 9.87855 11.1068 9.73966C11.3411 9.60078 11.5972 9.53133 11.875 9.53133H13.125C13.4028 9.53133 13.6632 9.60078 13.9062 9.73966C14.1493 9.87855 14.3576 10.0522 14.5312 10.2605L16.0417 11.9532C16.875 12.9081 17.7604 13.6676 18.6979 14.2319C19.6354 14.7961 20.6944 15.0782 21.875 15.0782V16.6407C20.3993 16.6407 19.0668 16.2848 17.8776 15.573C16.6884 14.8612 15.5208 13.8022 14.375 12.3959V15.9897L18.8542 17.7605C19.1493 17.882 19.375 18.086 19.5312 18.3725C19.6875 18.6589 19.7656 18.9584 19.7656 19.2709C19.7656 19.7223 19.6181 20.0956 19.3229 20.3907C19.0278 20.6858 18.6545 20.8334 18.2031 20.8334H10.3125V20.547C10.3125 20.0956 10.4514 19.731 10.7292 19.4532C11.0069 19.1754 11.3715 19.0365 11.8229 19.0365H15.2865C15.4253 19.0365 15.5469 18.9845 15.651 18.8803C15.7552 18.7761 15.8073 18.6546 15.8073 18.5157C15.8073 18.3768 15.7552 18.2553 15.651 18.1511C15.5469 18.047 15.4253 17.9949 15.2865 17.9949H11.8229C11.059 17.9949 10.4514 18.2292 10 18.698C9.54861 19.1667 9.32292 19.7831 9.32292 20.547V20.8334H6.79688ZM12.5 7.96883C11.9792 7.96883 11.5321 7.7822 11.1589 7.40894C10.7856 7.03567 10.599 6.58862 10.599 6.06779C10.599 5.54696 10.7856 5.09991 11.1589 4.72664C11.5321 4.35338 11.9792 4.16675 12.5 4.16675C13.0208 4.16675 13.4679 4.35338 13.8411 4.72664C14.2144 5.09991 14.401 5.54696 14.401 6.06779C14.401 6.58862 14.2144 7.03567 13.8411 7.40894C13.4679 7.7822 13.0208 7.96883 12.5 7.96883Z" fill="#1E1E1E"/>
</svg>
