<svg width="25" height="25" viewBox="0 0 25 25" fill="none" xmlns="http://www.w3.org/2000/svg">
<path d="M3.125 10.2603C3.125 8.69784 3.47222 7.26554 4.16667 5.96346C4.86111 4.66138 5.78993 3.57631 6.95312 2.70825L7.89062 3.95825C6.9184 4.68742 6.14149 5.59454 5.5599 6.67961C4.9783 7.76468 4.6875 8.95825 4.6875 10.2603H3.125ZM20.3125 10.2603C20.3125 8.95825 20.0217 7.76468 19.4401 6.67961C18.8585 5.59454 18.0816 4.68742 17.1094 3.95825L18.0469 2.70825C19.2101 3.57631 20.1389 4.66138 20.8333 5.96346C21.5278 7.26554 21.875 8.69784 21.875 10.2603H20.3125ZM4.16667 19.7916V18.2291H6.25V10.3124C6.25 8.85409 6.67969 7.54766 7.53906 6.39315C8.39844 5.23863 9.53125 4.51381 10.9375 4.21867V3.64575C10.9375 3.21172 11.0894 2.8428 11.3932 2.53898C11.697 2.23516 12.066 2.08325 12.5 2.08325C12.934 2.08325 13.303 2.23516 13.6068 2.53898C13.9106 2.8428 14.0625 3.21172 14.0625 3.64575V4.21867C15.4688 4.51381 16.6016 5.23863 17.4609 6.39315C18.3203 7.54766 18.75 8.85409 18.75 10.3124V18.2291H20.8333V19.7916H4.16667ZM12.5 22.9166C11.9271 22.9166 11.4366 22.7126 11.0286 22.3046C10.6207 21.8966 10.4167 21.4062 10.4167 20.8333H14.5833C14.5833 21.4062 14.3793 21.8966 13.9714 22.3046C13.5634 22.7126 13.0729 22.9166 12.5 22.9166ZM7.8125 18.2291H17.1875V10.3124C17.1875 9.01034 16.7318 7.90356 15.8203 6.99211C14.9089 6.08065 13.8021 5.62492 12.5 5.62492C11.1979 5.62492 10.0911 6.08065 9.17969 6.99211C8.26823 7.90356 7.8125 9.01034 7.8125 10.3124V18.2291Z" fill="#1E1E1E"/>
</svg>
