<svg width="25" height="25" viewBox="0 0 25 25" fill="none" xmlns="http://www.w3.org/2000/svg">
<path d="M3.95789 21.2239L3.35893 21.0416C2.80338 20.7985 2.42577 20.3819 2.22612 19.7916C2.02647 19.2013 2.08289 18.6197 2.39539 18.0468L3.95789 14.5051V21.2239ZM8.80164 23.2551C8.21136 23.2551 7.70789 23.0468 7.29123 22.6301C6.87456 22.2135 6.66623 21.71 6.66623 21.1197V15.7291L9.06206 22.552C9.09678 22.6909 9.14886 22.8124 9.21831 22.9166C9.28775 23.0208 9.37456 23.1336 9.47873 23.2551H8.80164ZM13.6975 22.6301C13.3329 22.7864 12.9509 22.7517 12.5516 22.526C12.1523 22.3003 11.8659 21.9878 11.6923 21.5885L6.71831 8.07283C6.5447 7.67353 6.56206 7.2829 6.77039 6.90096C6.97873 6.51902 7.29991 6.24124 7.73393 6.06763L16.0152 3.07284C16.4145 2.93395 16.8051 2.96867 17.1871 3.177C17.569 3.38534 17.8468 3.69784 18.0204 4.1145L22.9944 17.4739C23.1159 17.9079 23.0898 18.3333 22.9162 18.7499C22.7426 19.1666 22.4388 19.453 22.0048 19.6093L13.6975 22.6301ZM11.5621 9.7395C11.7704 9.7395 11.9527 9.66138 12.1089 9.50513C12.2652 9.34888 12.3433 9.16658 12.3433 8.95825C12.3433 8.74992 12.2652 8.56763 12.1089 8.41138C11.9527 8.25513 11.7704 8.177 11.5621 8.177C11.3537 8.177 11.1714 8.25513 11.0152 8.41138C10.8589 8.56763 10.7808 8.74992 10.7808 8.95825C10.7808 9.16658 10.8589 9.34888 11.0152 9.50513C11.1714 9.66138 11.3537 9.7395 11.5621 9.7395ZM13.2027 21.1197L21.4839 18.0989L16.51 4.58325L8.22873 7.57804L13.2027 21.1197Z" fill="#1E1E1E"/>
</svg>
