<svg width="25" height="25" viewBox="0 0 25 25" fill="none" xmlns="http://www.w3.org/2000/svg">
<path d="M2.08366 19.7917V18.2031H22.917V19.7917H2.08366ZM3.07324 13.1771L2.03158 12.6042L3.07324 10.8333H1.04199V9.66146H3.07324L2.03158 7.89062L3.07324 7.31771L4.06283 9.0625L5.05241 7.31771L6.09408 7.89062L5.05241 9.66146H7.08366V10.8333H5.05241L6.09408 12.6042L5.05241 13.1771L4.06283 11.4323L3.07324 13.1771ZM11.5107 13.1771L10.4691 12.5521L11.5107 10.7813H9.47949V9.60938H11.5107L10.4691 7.83854L11.5107 7.26562L12.5003 9.01042L13.4899 7.26562L14.5316 7.83854L13.4899 9.60938H15.5212V10.7813H13.4899L14.5316 12.5521L13.4899 13.1771L12.5003 11.4323L11.5107 13.1771ZM19.9482 13.1771L18.9066 12.5521L19.9482 10.7813H17.917V9.60938H19.9482L18.9066 7.83854L19.9482 7.26562L20.9378 9.01042L21.9274 7.26562L22.9691 7.83854L21.9274 9.60938H23.9587V10.7813H21.9274L22.9691 12.5521L21.9274 13.1771L20.9378 11.4323L19.9482 13.1771Z" fill="#1E1E1E"/>
</svg>
