<svg width="25" height="25" viewBox="0 0 25 25" fill="none" xmlns="http://www.w3.org/2000/svg">
<path d="M12.5003 20.8333C11.667 20.1735 10.7642 19.6614 9.79199 19.2968C8.81977 18.9322 7.81283 18.7499 6.77116 18.7499C6.04199 18.7499 5.32585 18.8454 4.62272 19.0364C3.9196 19.2273 3.24685 19.4964 2.60449 19.8437C2.23991 20.0346 1.88835 20.026 1.5498 19.8176C1.21126 19.6093 1.04199 19.3055 1.04199 18.9062V6.35408C1.04199 6.16311 1.08974 5.98082 1.18522 5.80721C1.28071 5.6336 1.42394 5.50339 1.61491 5.41658C2.41352 4.99992 3.24685 4.68742 4.11491 4.47909C4.98296 4.27075 5.86838 4.16659 6.77116 4.16659C7.7781 4.16659 8.76335 4.29679 9.72689 4.55721C10.6904 4.81763 11.6149 5.20825 12.5003 5.72908V18.9062C13.3857 18.3333 14.3146 17.9036 15.2868 17.6171C16.259 17.3306 17.2399 17.1874 18.2295 17.1874C18.8545 17.1874 19.5359 17.2482 20.2738 17.3697C21.0116 17.4912 21.7191 17.743 22.3962 18.1249V4.97388C22.5679 5.03898 22.7366 5.1073 22.9024 5.17882C23.0684 5.25053 23.2295 5.32978 23.3857 5.41658C23.5594 5.52075 23.6982 5.65686 23.8024 5.82492C23.9066 5.9928 23.9587 6.16919 23.9587 6.35408V18.9062C23.9587 19.3055 23.7894 19.6093 23.4508 19.8176C23.1123 20.026 22.7607 20.0346 22.3962 19.8437C21.7538 19.4964 21.0811 19.2273 20.3779 19.0364C19.6748 18.8454 18.9587 18.7499 18.2295 18.7499C17.1878 18.7499 16.1809 18.9322 15.2087 19.2968C14.2364 19.6614 13.3337 20.1735 12.5003 20.8333ZM14.0628 16.4843V7.29158L20.8337 0.520752V10.5989L14.0628 16.4843ZM10.9378 18.1249V6.69263C10.3475 6.36277 9.66178 6.11971 8.88053 5.96346C8.09928 5.80721 7.39616 5.72908 6.77116 5.72908C5.95519 5.72908 5.19564 5.81589 4.49251 5.9895C3.78939 6.16311 3.16005 6.38473 2.60449 6.65435V18.1249C3.21213 17.8298 3.86751 17.5997 4.57064 17.4348C5.27376 17.2699 6.01161 17.1874 6.78418 17.1874C7.55675 17.1874 8.29026 17.2699 8.9847 17.4348C9.67914 17.5997 10.3302 17.8298 10.9378 18.1249Z" fill="#1E1E1E"/>
</svg>
