<svg width="25" height="25" viewBox="0 0 25 25" fill="none" xmlns="http://www.w3.org/2000/svg">
<path d="M13.9323 23.9583V17.7344L11.1198 15.1563L10.026 20.0521L3.125 18.6198L3.41146 17.1615L8.59375 18.2031L10.4948 8.59375L7.89062 9.81771V13.3073H6.32812V8.75L10.599 6.95313C11.1545 6.71007 11.5495 6.55816 11.7839 6.4974C12.0182 6.43663 12.2569 6.40625 12.5 6.40625C12.8472 6.40625 13.1554 6.48003 13.4245 6.6276C13.6936 6.77517 13.9236 6.99653 14.1146 7.29167L15.2083 9.03646C15.6597 9.76562 16.276 10.3993 17.0573 10.9375C17.8385 11.4757 18.75 11.7448 19.7917 11.7448V13.3073C18.6285 13.3073 17.5911 13.0382 16.6797 12.5C15.7682 11.9618 14.9219 11.1545 14.1406 10.0781L13.125 14.1927L15.4948 16.3802V23.9583H13.9323ZM14.0625 5.36458C13.5417 5.36458 13.0946 5.17795 12.7214 4.80469C12.3481 4.43142 12.1615 3.98438 12.1615 3.46354C12.1615 2.94271 12.3481 2.49566 12.7214 2.1224C13.0946 1.74913 13.5417 1.5625 14.0625 1.5625C14.5833 1.5625 15.0304 1.74913 15.4036 2.1224C15.7769 2.49566 15.9635 2.94271 15.9635 3.46354C15.9635 3.98438 15.7769 4.43142 15.4036 4.80469C15.0304 5.17795 14.5833 5.36458 14.0625 5.36458Z" fill="#1E1E1E"/>
</svg>
