<svg width="25" height="25" viewBox="0 0 25 25" fill="none" xmlns="http://www.w3.org/2000/svg">
<path d="M4.16667 21.875V18.5417L19.0365 3.67188C19.2274 3.4809 19.4227 3.34201 19.6224 3.25521C19.822 3.1684 20.0347 3.125 20.2604 3.125C20.4688 3.125 20.6727 3.1684 20.8724 3.25521C21.072 3.34201 21.2674 3.4809 21.4583 3.67188L22.3698 4.58333C22.5608 4.75694 22.6997 4.94358 22.7865 5.14323C22.8733 5.34288 22.9167 5.55556 22.9167 5.78125C22.9167 5.98958 22.8733 6.19792 22.7865 6.40625C22.6997 6.61458 22.5608 6.81424 22.3698 7.00521L7.5 21.875H4.16667ZM5.72917 20.3125H6.875L18.4896 8.69792L17.9167 8.125L17.3438 7.55208L5.72917 19.1667V20.3125ZM17.9167 8.125L17.3438 7.55208L18.4896 8.69792L17.9167 8.125ZM14.5833 21.875C15.9375 21.875 17.1441 21.5582 18.2031 20.9245C19.2622 20.2908 19.7917 19.3924 19.7917 18.2292C19.7917 17.5347 19.5356 16.8967 19.0234 16.3151C18.5113 15.7335 17.7083 15.2778 16.6146 14.9479L15.3906 16.1719C16.2587 16.3802 16.9488 16.6753 17.4609 17.0573C17.9731 17.4392 18.2292 17.8299 18.2292 18.2292C18.2292 18.7847 17.8776 19.2708 17.1745 19.6875C16.4714 20.1042 15.6076 20.3125 14.5833 20.3125C14.375 20.3125 14.1927 20.3863 14.0365 20.5339C13.8802 20.6814 13.8021 20.8681 13.8021 21.0938C13.8021 21.3021 13.8802 21.4844 14.0365 21.6406C14.1927 21.7969 14.375 21.875 14.5833 21.875ZM6.25 14.2188L7.5 12.9688C6.5625 12.7431 5.85938 12.5043 5.39062 12.2526C4.92188 12.0009 4.6875 11.7361 4.6875 11.4583C4.6875 11.1806 4.87413 10.9158 5.2474 10.6641C5.62066 10.4123 6.38889 10.0694 7.55208 9.63542C8.99306 9.09722 9.96094 8.58073 10.4557 8.08594C10.9505 7.59115 11.1979 6.98785 11.1979 6.27604C11.1979 5.30382 10.842 4.53559 10.1302 3.97135C9.4184 3.40712 8.47222 3.125 7.29167 3.125C6.5625 3.125 5.90278 3.25087 5.3125 3.5026C4.72222 3.75434 4.27951 4.07118 3.98438 4.45312C3.84549 4.60938 3.78038 4.79167 3.78906 5C3.79774 5.20833 3.89757 5.38194 4.08854 5.52083C4.26215 5.65972 4.45747 5.71615 4.67448 5.6901C4.89149 5.66406 5.06944 5.5816 5.20833 5.44271C5.46875 5.18229 5.76389 4.99132 6.09375 4.86979C6.42361 4.74826 6.82292 4.6875 7.29167 4.6875C8.09028 4.6875 8.68056 4.84375 9.0625 5.15625C9.44444 5.46875 9.63542 5.84201 9.63542 6.27604C9.63542 6.62326 9.47049 6.92708 9.14062 7.1875C8.81076 7.44792 8.07292 7.78646 6.92708 8.20312C5.29514 8.7934 4.25347 9.3316 3.80208 9.81771C3.35069 10.3038 3.125 10.8507 3.125 11.4583C3.125 12.0139 3.36806 12.5521 3.85417 13.0729C4.34028 13.5938 5.13889 13.9757 6.25 14.2188Z" fill="#1E1E1E"/>
</svg>
